<?xml version="1.0" standalone="no"?><!DOCTYPE svg PUBLIC "-//W3C//DTD SVG 1.1//EN" "http://www.w3.org/Graphics/SVG/1.1/DTD/svg11.dtd"><svg t="1611492044833" class="icon" viewBox="0 0 1024 1024" version="1.1" xmlns="http://www.w3.org/2000/svg" p-id="8812" xmlns:xlink="http://www.w3.org/1999/xlink" width="200" height="200"><defs><style type="text/css"></style></defs><path d="M620.544 980.48c-48.128 0-96.768-7.168-122.88-28.672-12.8-10.752-18.944-24.064-18.944-39.424h11.264c0 12.288 5.12 22.528 15.36 31.232 39.936 33.28 144.896 29.184 201.728 18.944 1.024 0 2.048-0.512 3.584-0.512 16.896-3.072 56.832-9.728 91.648-45.568 43.52-45.568 66.048-121.856 66.048-226.816V501.76h11.264v187.392c0 108.032-23.04 186.88-69.12 234.496-37.376 38.912-79.36 46.08-97.792 49.152-1.024 0-2.56 0.512-3.584 0.512-25.088 4.096-56.832 7.168-88.576 7.168zM178.176 353.792h24.064v69.12h-24.064z" fill="#BEC8D8" p-id="8813"></path><path d="M165.376 346.624h11.264c2.048 0 3.584 1.536 3.584 3.584v75.264c0 2.048-1.536 3.584-3.584 3.584h-11.264c-2.048 0-3.584-1.536-3.584-3.584V350.72c-0.512-2.048 1.536-4.096 3.584-4.096zM199.68 346.624h11.264v82.944H199.68zM444.416 866.816h85.504v16.896H444.416z" fill="#749ED2" p-id="8814"></path><path d="M458.752 883.712h57.344v11.264H458.752z" fill="#BEC8D8" p-id="8815"></path><path d="M456.704 894.464h61.44v11.264h-61.44zM456.704 916.992h61.44c0 7.168-5.632 12.8-12.8 12.8h-35.328c-7.68 0-13.312-5.632-13.312-12.8z" fill="#749ED2" p-id="8816"></path><path d="M454.656 905.728h65.024v11.264H454.656z" fill="#BEC8D8" p-id="8817"></path><path d="M638.464 258.56v-16.384h11.264c11.264 0 20.992-8.192 20.992-17.92v-12.288c0-9.216-6.144-17.408-15.36-21.504l-81.92-33.792c-16.384-6.656-28.16-19.968-32.256-35.84l-6.144-23.04c-5.632-20.992-26.624-35.84-50.688-35.84-23.04 0-43.008 13.312-49.664 32.256l-10.752 30.208c-4.608 13.824-15.36 25.088-29.696 31.232l-76.288 34.304c-9.216 4.096-14.336 12.288-14.336 20.992v12.8c0 9.728 9.216 17.92 20.992 17.92h24.064v16.384h-24.064c-20.48 0-36.864-15.36-36.864-34.304v-12.8c0-14.848 9.728-29.184 24.064-35.84l76.288-34.304c9.728-4.608 17.408-12.288 20.992-22.016l10.752-30.208C428.544 63.488 454.656 46.08 484.352 46.08c31.744 0 58.88 19.456 66.56 47.616l6.144 23.04c3.072 11.264 11.264 19.968 23.04 25.088l81.92 33.792c15.36 6.144 25.6 20.48 25.6 36.352v12.288c0 18.944-16.384 34.304-36.864 34.304h-12.288z" fill="#749ED2" p-id="8818"></path><path d="M484.352 49.152c30.208 0 56.32 18.944 63.488 45.568l6.144 23.04c3.072 11.776 12.288 21.504 24.576 26.624l81.92 33.792c14.336 6.144 23.552 18.944 23.552 33.792v12.288c0 17.408-15.36 31.744-34.304 31.744h-8.704v-10.752h8.704c12.8 0 23.552-9.216 23.552-20.992v-12.288c0-10.24-6.656-19.456-16.896-23.552l-81.92-33.792c-15.36-6.656-26.624-18.944-30.72-33.792L537.6 97.28c-6.144-22.016-27.648-37.888-53.248-37.888-24.064 0-45.056 13.824-52.224 34.304l-10.752 30.208c-4.608 12.8-14.848 23.552-28.16 29.696L317.44 187.904c-10.24 4.608-16.384 13.312-16.384 23.552v12.8c0 11.264 10.752 20.992 23.552 20.992h21.504V256h-21.504c-18.944 0-34.304-14.336-34.304-31.744v-12.8c0-13.824 8.704-27.136 22.528-33.28L389.12 144.384c10.752-4.608 18.944-13.312 22.528-23.552l10.752-30.208c8.192-25.088 33.28-41.472 61.952-41.472m0-5.632c-30.72 0-57.856 17.92-67.584 45.056l-10.752 30.208c-3.072 8.704-10.24 15.872-19.456 20.48l-76.288 34.304c-15.872 7.168-25.6 22.016-25.6 38.4v12.8c0 20.48 17.92 36.864 39.936 36.864h27.136v-21.504h-27.136c-9.728 0-17.92-6.656-17.92-15.36v-12.8c0-7.68 5.12-14.848 12.8-18.432l76.288-34.304c14.848-6.656 26.112-18.432 30.72-32.768l10.752-30.208c6.656-18.432 25.6-30.72 47.104-30.72 23.04 0 43.008 13.824 48.128 33.792l6.144 23.04c4.608 16.896 16.896 30.72 33.792 37.376l81.92 33.792c8.192 3.584 13.824 10.752 13.824 18.944v12.288c0 8.704-8.192 15.36-17.92 15.36h-14.336v21.504h14.336c22.016 0 39.936-16.384 39.936-36.864v-12.288c0-16.896-10.752-31.744-27.136-38.912l-81.92-33.792c-10.752-4.608-18.432-12.8-21.504-23.04l-6.144-23.04c-7.68-29.696-36.352-50.176-69.12-50.176z" fill="#BEC8D8" p-id="8819"></path><path d="M355.328 283.648h-35.328c-2.048 0-3.584-1.536-3.584-3.584v-51.2c0-2.048 1.536-3.584 3.584-3.584h35.328c2.048 0 3.584 1.536 3.584 3.584v51.2c0.512 1.536-1.536 3.584-3.584 3.584zM654.848 283.648H619.52c-2.048 0-3.584-1.536-3.584-3.584v-51.2c0-2.048 1.536-3.584 3.584-3.584h35.328c2.048 0 3.584 1.536 3.584 3.584v51.2c0 1.536-1.536 3.584-3.584 3.584z" fill="#749ED2" p-id="8820"></path><path d="M256.512 864.256c-23.04 0-41.472-18.432-41.472-41.472V313.344c0-23.04 18.432-41.472 41.472-41.472h461.824c23.04 0 41.472 18.432 41.472 41.472v509.952c0 23.04-18.432 41.472-41.472 41.472H256.512z" fill="#749ED2" p-id="8821"></path><path d="M718.336 277.504c19.968 0 35.84 15.872 35.84 35.84v509.952c0 19.968-15.872 35.84-35.84 35.84H256.512c-19.968 0-35.84-15.872-35.84-35.84V313.344c0-19.968 15.872-35.84 35.84-35.84h461.824m0-11.264H256.512c-26.112 0-47.104 20.992-47.104 47.104v509.952c0 26.112 20.992 47.104 47.104 47.104h461.824c26.112 0 47.104-20.992 47.104-47.104V313.344c-0.512-26.112-20.992-47.104-47.104-47.104z" fill="#BEC8D8" p-id="8822"></path><path d="M355.328 478.208c-9.216 0-16.384-7.168-16.384-16.384v-107.52c0-9.216 7.168-16.384 16.384-16.384h263.68c9.216 0 16.384 7.168 16.384 16.384v107.008c0 9.216-7.168 16.384-16.384 16.384H355.328z" fill="#F5C720" p-id="8823"></path><path d="M619.008 343.552c6.144 0 11.264 5.12 11.264 11.264v107.008c0 6.144-5.12 11.264-11.264 11.264H355.328c-6.144 0-11.264-5.12-11.264-11.264v-107.52c0-6.144 5.12-11.264 11.264-11.264h263.68m0-10.752H355.328c-12.288 0-22.016 9.728-22.016 22.016v107.008c0 12.288 9.728 22.016 22.016 22.016h263.68c12.288 0 22.016-9.728 22.016-22.016V354.304c0-11.776-9.728-22.016-22.016-22.016z" fill="#BEC8D8" p-id="8824"></path><path d="M355.328 788.992c-3.072 0-5.632-2.56-5.632-5.632v-107.008c0-3.072 2.56-5.632 5.632-5.632h263.68c3.072 0 5.632 2.56 5.632 5.632V783.36c0 3.072-2.56 5.632-5.632 5.632H355.328z" fill="#333030" p-id="8825"></path><path d="M619.008 676.352V783.36H355.328v-107.008h263.68m0-11.264H355.328c-6.144 0-11.264 5.12-11.264 11.264V783.36c0 6.144 5.12 11.264 11.264 11.264h263.68c6.144 0 11.264-5.12 11.264-11.264v-107.008c0-6.144-5.12-11.264-11.264-11.264z" fill="#747F8F" p-id="8826"></path><path d="M487.424 574.976m-14.336 0a14.336 14.336 0 1 0 28.672 0 14.336 14.336 0 1 0-28.672 0Z" fill="#040000" p-id="8827"></path><path d="M487.424 539.136m-8.704 0a8.704 8.704 0 1 0 17.408 0 8.704 8.704 0 1 0-17.408 0Z" fill="#040000" p-id="8828"></path><path d="M487.424 610.816m-8.704 0a8.704 8.704 0 1 0 17.408 0 8.704 8.704 0 1 0-17.408 0Z" fill="#040000" p-id="8829"></path><path d="M455.637638 555.607567a8.704 8.704 0 1 0 12.3091-12.30953 8.704 8.704 0 1 0-12.3091 12.30953Z" fill="#040000" p-id="8830"></path><path d="M506.251411 606.474771a8.704 8.704 0 1 0 12.3091-12.30953 8.704 8.704 0 1 0-12.3091 12.30953Z" fill="#040000" p-id="8831"></path><path d="M451.584 574.976m-8.704 0a8.704 8.704 0 1 0 17.408 0 8.704 8.704 0 1 0-17.408 0Z" fill="#040000" p-id="8832"></path><path d="M523.264 574.976m-8.704 0a8.704 8.704 0 1 0 17.408 0 8.704 8.704 0 1 0-17.408 0Z" fill="#040000" p-id="8833"></path><path d="M455.510923 606.348055a8.704 8.704 0 1 0 12.3091-12.309529 8.704 8.704 0 1 0-12.3091 12.309529Z" fill="#040000" p-id="8834"></path><path d="M506.374507 555.735782a8.704 8.704 0 1 0 12.3091-12.30953 8.704 8.704 0 1 0-12.3091 12.30953Z" fill="#040000" p-id="8835"></path><path d="M375.808 368.64h102.912v25.088H375.808z" fill="#373636" p-id="8836"></path><path d="M375.808 415.744h210.432v27.648H375.808z" fill="#373636" p-id="8837"></path><path d="M854.016 672.256c-4.608 0-8.704-4.096-8.704-8.704v-153.6c0-4.608 4.096-8.704 8.704-8.704h35.328c4.608 0 8.704 4.096 8.704 8.704v153.6c0 4.608-4.096 8.704-8.704 8.704h-35.328z" fill="#749ED2" p-id="8838"></path><path d="M889.344 506.88c1.536 0 3.072 1.536 3.072 3.072v153.6c0 1.536-1.536 3.072-3.072 3.072h-35.328c-1.536 0-3.072-1.536-3.072-3.072v-153.6c0-1.536 1.536-3.072 3.072-3.072h35.328m0-11.264h-35.328c-7.68 0-14.336 6.144-14.336 14.336v153.6c0 7.68 6.144 14.336 14.336 14.336h35.328c7.68 0 14.336-6.144 14.336-14.336v-153.6c0-7.68-6.656-14.336-14.336-14.336z" fill="#BEC8D8" p-id="8839"></path></svg>