<?xml version="1.0" standalone="no"?><!DOCTYPE svg PUBLIC "-//W3C//DTD SVG 1.1//EN" "http://www.w3.org/Graphics/SVG/1.1/DTD/svg11.dtd"><svg t="1611489318387" class="icon" viewBox="0 0 1024 1024" version="1.1" xmlns="http://www.w3.org/2000/svg" p-id="890" xmlns:xlink="http://www.w3.org/1999/xlink" width="200" height="200"><defs><style type="text/css"></style></defs><path d="M512 0.438857a511.561143 511.561143 0 1 0 0 1023.122286A511.561143 511.561143 0 0 0 512 0.438857z m-35.766857 210.651429c0-29.915429 13.677714-44.836571 41.033143-44.836572 27.355429 0 41.033143 14.921143 41.033143 44.763429v414.061714c0 29.842286-13.677714 44.763429-40.96 44.763429-27.428571 0-41.106286-14.921143-41.106286-44.763429v-413.988571z m41.033143 641.536c-29.842286 0-46.006857-14.921143-48.493715-44.763429 2.486857-29.842286 18.651429-46.006857 48.493715-48.493714 29.842286 2.486857 46.08 18.651429 48.493714 48.493714-2.486857 29.842286-18.651429 44.763429-48.493714 44.763429z" fill="#FF5656" p-id="891"></path></svg>