<?xml version="1.0" standalone="no"?><!DOCTYPE svg PUBLIC "-//W3C//DTD SVG 1.1//EN" "http://www.w3.org/Graphics/SVG/1.1/DTD/svg11.dtd"><svg t="1611491913194" class="icon" viewBox="0 0 1024 1024" version="1.1" xmlns="http://www.w3.org/2000/svg" p-id="8358" xmlns:xlink="http://www.w3.org/1999/xlink" width="200" height="200"><defs><style type="text/css"></style></defs><path d="M460.8 443.733333l39.822222-85.333333c0-5.688889 5.688889-11.377778 11.377778-11.377778s11.377778 5.688889 11.377778 11.377778l39.822222 85.333333h307.2c22.755556 0 39.822222 17.066667 39.822222 39.822223v466.488888c0 22.755556-17.066667 39.822222-39.822222 39.822223H153.6c-22.755556 0-39.822222-17.066667-39.822222-39.822223V477.866667c0-22.755556 17.066667-39.822222 39.822222-39.822223h307.2z" fill="#179c3d" p-id="8359"></path><path d="M187.733333 529.066667h648.533334v386.844444H187.733333z" fill="#55cc5c" p-id="8360"></path><path d="M341.333333 807.822222c-45.511111 0-85.333333-39.822222-85.333333-85.333333s39.822222-85.333333 85.333333-85.333333 85.333333 39.822222 85.333334 85.333333-39.822222 85.333333-85.333334 85.333333z" fill="#ffffff" p-id="8361"></path><path d="M625.777778 637.155556c17.066667 0 28.444444 11.377778 28.444444 28.444444v113.777778c0 17.066667-11.377778 28.444444-28.444444 28.444444s-22.755556-11.377778-22.755556-22.755555v-113.777778c0-17.066667 11.377778-34.133333 22.755556-34.133333z" fill="#4AB134" p-id="8362"></path><path d="M733.866667 637.155556c5.688889 0 11.377778 5.688889 17.066666 5.688888 5.688889 5.688889 5.688889 11.377778 5.688889 17.066667v113.777778c0 17.066667-11.377778 28.444444-28.444444 28.444444s-28.444444-11.377778-28.444445-28.444444v-113.777778c5.688889-5.688889 17.066667-22.755556 34.133334-22.755555z" fill="#5e4b44" p-id="8363"></path><path d="M369.777778 301.511111c-11.377778 11.377778-34.133333 17.066667-45.511111 5.688889-17.066667-11.377778-22.755556-28.444444-11.377778-45.511111 45.511111-68.266667 119.466667-108.088889 199.111111-108.088889s159.288889 39.822222 199.111111 108.088889c11.377778 17.066667 5.688889 39.822222-11.377778 51.2-17.066667 11.377778-39.822222 5.688889-51.2-11.377778-28.444444-51.2-79.644444-79.644444-136.533333-79.644444S403.911111 250.311111 369.777778 301.511111z" fill="#179c3d" p-id="8364"></path><path d="M250.311111 216.177778c-11.377778 17.066667-34.133333 17.066667-51.2 11.377778s-22.755556-34.133333-11.377778-51.2C261.688889 73.955556 381.155556 11.377778 512 11.377778s250.311111 62.577778 324.266667 164.977778c11.377778 17.066667 5.688889 39.822222-11.377778 51.2s-39.822222 5.688889-51.2-11.377778C711.111111 130.844444 614.4 79.644444 512 79.644444s-204.8 51.2-261.688889 136.533334z" fill="#55cc5c" p-id="8365"></path></svg>